<mxfile host="multicloud-diagrams" agent="PIP package multicloud-diagrams. Generate resources in draw.io compatible format for Cloud infrastructure. Copyrights @ Roman Tsypuk 2023. MIT license." type="MultiCloud">
	<diagram id="diagram_1" name="AWS components">
		<mxGraphModel dx="1015" dy="661" grid="1" gridSize="10" guides="1" tooltips="1" connect="1" arrows="1" fold="1" page="1" pageScale="1" pageWidth="850" pageHeight="1100" math="0" shadow="1">
			<root>
				<mxCell id="0"/>
				<mxCell id="1" parent="0"/>
				<mxCell id="vertex:ar_vr:arn:aws:ar_vr:us-west-1:123456789012:ar_vr/123" value="&lt;b&gt;Name&lt;/b&gt;: Registry for images&lt;BR&gt;&lt;b&gt;ARN&lt;/b&gt;: arn:aws:ar_vr:us-west-1:123456789012:ar_vr/123&lt;BR&gt;-----------&lt;BR&gt;&lt;b&gt;CreationTime&lt;/b&gt;: 2024-22-06&lt;BR&gt;&lt;b&gt;FailureReason&lt;/b&gt;: Connection Loss&lt;BR&gt;&lt;b&gt;FailureCode&lt;/b&gt;: 153&lt;BR&gt;&lt;b&gt;HumanLoopStatus&lt;/b&gt;: Completed&lt;BR&gt;&lt;b&gt;HumanLoopName&lt;/b&gt;: MainRender" style="sketch=0;outlineConnect=0;fontColor=#232F3E;gradientColor=#F34482;gradientDirection=north;fillColor=#BC1356;strokeColor=#ffffff;dashed=0;verticalLabelPosition=bottom;verticalAlign=top;align=left;html=1;fontSize=12;fontStyle=0;aspect=fixed;shape=mxgraph.aws4.resourceIcon;resIcon=mxgraph.aws4.ar_vr;" parent="1" vertex="1">
					<mxGeometry width="78" height="78" as="geometry"/>
				</mxCell>
			</root>
		</mxGraphModel>
	</diagram>
</mxfile>